# xmcd CD database file
#
# Track frame offsets:
#	150
#	15737
#	52770
#	77067
#	88550
#	113137
#
# Disc length: 1896 seconds
#
# Revision: 0
# Processed by: cddbd v1.4PL0 Copyright (c) Steve Scherf et al.
# Submitted via: CDex 1.50beta10
#
DISCID=39076606
DTITLE=Kenny Clarke - Francy Boland - Now hear our meanin'
DYEAR=1965
DGENRE=Jazz
TTITLE0=Johnny one note
TTITLE1=Night lady
TTITLE2=I'm so scared of girls when they're good looking
TTITLE3=A ball for Othello
TTITLE4=Sabbath message
TTITLE5=Now hear my meanin'
EXTD=YEAR: 1965
EXTT0=
EXTT1=
EXTT2=
EXTT3=
EXTT4=
EXTT5=
PLAYORDER=
